HIERARCHY
ROOT Hips
{
	OFFSET 0.000000 100.481300 0.000000
	CHANNELS 6 Xposition Yposition Zposition Xrotation Yrotation Zrotation 
	JOINT Spine
	{
		OFFSET -0.279200 12.230698 -2.892100
		CHANNELS 3 Xrotation Yrotation Zrotation
		JOINT Spine1
		{
			OFFSET -0.232667 10.192268 -1.242267
			CHANNELS 3 Xrotation Yrotation Zrotation
			JOINT Spine1_split
			{
				OFFSET -0.232667 10.192268 -1.242267
				CHANNELS 3 Xrotation Yrotation Zrotation
				JOINT Spine2
				{
					OFFSET -0.232667 10.192268 -1.242267
					CHANNELS 3 Xrotation Yrotation Zrotation
					JOINT Neck
					{
						OFFSET -0.418800 17.814194 8.416900
						CHANNELS 3 Xrotation Yrotation Zrotation
						JOINT Head
						{
							OFFSET 0.000000 7.031097 3.806800
							CHANNELS 3 Xrotation Yrotation Zrotation
							JOINT HeadTop_End
							{
								OFFSET 0.000000 24.646606 12.978600
								CHANNELS 3 Xrotation Yrotation Zrotation
								End Site
								{
									OFFSET 0.000000 0.000000 0.000000
								}
							}
						}
					}
					JOINT LeftShoulder
					{
						OFFSET 8.476499 7.247704 -3.868750
						CHANNELS 3 Xrotation Yrotation Zrotation
						JOINT LeftShoulder_split
						{
							OFFSET 8.476499 7.247704 -3.868750
							CHANNELS 3 Xrotation Yrotation Zrotation
							JOINT LeftArm
							{
								OFFSET 9.308998 -2.777710 0.208600
								CHANNELS 3 Xrotation Yrotation Zrotation
								JOINT LeftForeArm
								{
									OFFSET 29.972298 0.000000 0.000000
									CHANNELS 3 Xrotation Yrotation Zrotation
									JOINT LeftHand
									{
										OFFSET 26.026505 0.000000 0.000000
										CHANNELS 3 Xrotation Yrotation Zrotation
										JOINT LeftHandThumb1
										{
											OFFSET 12.240501 -7.147949 9.207150
											CHANNELS 3 Xrotation Yrotation Zrotation
											JOINT LeftHandThumb2
											{
												OFFSET 4.138618 -2.389435 2.389433
												CHANNELS 3 Xrotation Yrotation Zrotation
												JOINT LeftHandThumb3
												{
													OFFSET 2.726913 -1.574387 1.574386
													CHANNELS 3 Xrotation Yrotation Zrotation
													JOINT LeftHandThumb4
													{
														OFFSET 3.941010 -2.275345 2.275342
														CHANNELS 3 Xrotation Yrotation Zrotation
														End Site
														{
															OFFSET 0.000000 0.000000 0.000000
														}
													}
												}
											}
										}
										JOINT LeftHandIndex1
										{
											OFFSET 24.424698 -1.985611 5.953459
											CHANNELS 3 Xrotation Yrotation Zrotation
											JOINT LeftHandIndex2
											{
												OFFSET 6.426697 0.000000 0.000000
												CHANNELS 3 Xrotation Yrotation Zrotation
												JOINT LeftHandIndex3
												{
													OFFSET 5.337898 0.000000 0.000000
													CHANNELS 3 Xrotation Yrotation Zrotation
													JOINT LeftHandIndex4
													{
														OFFSET 4.409401 0.000000 0.000000
														CHANNELS 3 Xrotation Yrotation Zrotation
														End Site
														{
															OFFSET 0.000000 0.000000 0.000000
														}
													}
												}
											}
										}
										JOINT LeftHandMiddle1
										{
											OFFSET 23.810104 0.000000 0.000000
											CHANNELS 3 Xrotation Yrotation Zrotation
											JOINT LeftHandMiddle2
											{
												OFFSET 7.176498 0.000000 0.000000
												CHANNELS 3 Xrotation Yrotation Zrotation
												JOINT LeftHandMiddle3
												{
													OFFSET 6.774902 0.000000 0.000000
													CHANNELS 3 Xrotation Yrotation Zrotation
													JOINT LeftHandMiddle4
													{
														OFFSET 5.403328 0.000000 0.000000
														CHANNELS 3 Xrotation Yrotation Zrotation
														End Site
														{
															OFFSET 0.000000 0.000000 0.000000
														}
													}
												}
											}
										}
										JOINT LeftHandRing1
										{
											OFFSET 22.908401 -0.839279 -6.020567
											CHANNELS 3 Xrotation Yrotation Zrotation
											JOINT LeftHandRing2
											{
												OFFSET 6.337502 0.000000 0.000000
												CHANNELS 3 Xrotation Yrotation Zrotation
												JOINT LeftHandRing3
												{
													OFFSET 5.779297 0.000000 0.000000
													CHANNELS 3 Xrotation Yrotation Zrotation
													JOINT LeftHandRing4
													{
														OFFSET 4.965698 0.000000 0.000000
														CHANNELS 3 Xrotation Yrotation Zrotation
														End Site
														{
															OFFSET 0.000000 0.000000 0.000000
														}
													}
												}
											}
										}
										JOINT LeftHandPinky1
										{
											OFFSET 20.037003 -1.530319 -10.950146
											CHANNELS 3 Xrotation Yrotation Zrotation
											JOINT LeftHandPinky2
											{
												OFFSET 5.254700 0.000000 0.000000
												CHANNELS 3 Xrotation Yrotation Zrotation
												JOINT LeftHandPinky3
												{
													OFFSET 4.810204 0.000000 0.000000
													CHANNELS 3 Xrotation Yrotation Zrotation
													JOINT LeftHandPinky4
													{
														OFFSET 3.647202 0.000000 0.000000
														CHANNELS 3 Xrotation Yrotation Zrotation
														End Site
														{
															OFFSET 0.000000 0.000000 0.000000
														}
													}
												}
											}
										}
									}
								}
							}
						}
					}
					JOINT RightShoulder
					{
						OFFSET -7.570500 7.247704 -3.868750
						CHANNELS 3 Xrotation Yrotation Zrotation
						JOINT RightShoulder_split
						{
							OFFSET -7.570500 7.247704 -3.868750
							CHANNELS 3 Xrotation Yrotation Zrotation
							JOINT RightArm
							{
								OFFSET -9.308998 -2.777710 0.208500
								CHANNELS 3 Xrotation Yrotation Zrotation
								JOINT RightForeArm
								{
									OFFSET -29.972300 0.000000 0.000000
									CHANNELS 3 Xrotation Yrotation Zrotation
									JOINT RightHand
									{
										OFFSET -26.026505 0.000000 0.000000
										CHANNELS 3 Xrotation Yrotation Zrotation
										JOINT RightHandThumb1
										{
											OFFSET -12.240601 -7.148026 9.207092
											CHANNELS 3 Xrotation Yrotation Zrotation
											JOINT RightHandThumb2
											{
												OFFSET -4.138618 -2.389435 2.389433
												CHANNELS 3 Xrotation Yrotation Zrotation
												JOINT RightHandThumb3
												{
													OFFSET -2.726974 -1.574417 1.574421
													CHANNELS 3 Xrotation Yrotation Zrotation
													JOINT RightHandThumb4
													{
														OFFSET -3.941010 -2.275345 2.275343
														CHANNELS 3 Xrotation Yrotation Zrotation
														End Site
														{
															OFFSET 0.000000 0.000000 0.000000
														}
													}
												}
											}
										}
										JOINT RightHandIndex1
										{
											OFFSET -24.424698 -1.985657 5.953444
											CHANNELS 3 Xrotation Yrotation Zrotation
											JOINT RightHandIndex2
											{
												OFFSET -6.426697 0.000000 0.000000
												CHANNELS 3 Xrotation Yrotation Zrotation
												JOINT RightHandIndex3
												{
													OFFSET -5.337898 0.000000 0.000000
													CHANNELS 3 Xrotation Yrotation Zrotation
													JOINT RightHandIndex4
													{
														OFFSET -4.409401 0.000000 0.000000
														CHANNELS 3 Xrotation Yrotation Zrotation
														End Site
														{
															OFFSET 0.000000 0.000000 0.000000
														}
													}
												}
											}
										}
										JOINT RightHandMiddle1
										{
											OFFSET -23.810097 0.000000 0.000000
											CHANNELS 3 Xrotation Yrotation Zrotation
											JOINT RightHandMiddle2
											{
												OFFSET -7.176498 0.000000 0.000000
												CHANNELS 3 Xrotation Yrotation Zrotation
												JOINT RightHandMiddle3
												{
													OFFSET -6.774902 0.000000 0.000000
													CHANNELS 3 Xrotation Yrotation Zrotation
													JOINT RightHandMiddle4
													{
														OFFSET -5.403328 0.000000 0.000000
														CHANNELS 3 Xrotation Yrotation Zrotation
														End Site
														{
															OFFSET 0.000000 0.000000 0.000000
														}
													}
												}
											}
										}
										JOINT RightHandRing1
										{
											OFFSET -22.908302 -0.839325 -6.020576
											CHANNELS 3 Xrotation Yrotation Zrotation
											JOINT RightHandRing2
											{
												OFFSET -6.337502 0.000000 0.000000
												CHANNELS 3 Xrotation Yrotation Zrotation
												JOINT RightHandRing3
												{
													OFFSET -5.779297 0.000000 0.000000
													CHANNELS 3 Xrotation Yrotation Zrotation
													JOINT RightHandRing4
													{
														OFFSET -4.965698 0.000000 0.000000
														CHANNELS 3 Xrotation Yrotation Zrotation
														End Site
														{
															OFFSET 0.000000 0.000000 0.000000
														}
													}
												}
											}
										}
										JOINT RightHandPinky1
										{
											OFFSET -20.037003 -1.530334 -10.950259
											CHANNELS 3 Xrotation Yrotation Zrotation
											JOINT RightHandPinky2
											{
												OFFSET -5.254700 0.000000 0.000000
												CHANNELS 3 Xrotation Yrotation Zrotation
												JOINT RightHandPinky3
												{
													OFFSET -4.810204 0.000000 0.000000
													CHANNELS 3 Xrotation Yrotation Zrotation
													JOINT RightHandPinky4
													{
														OFFSET -3.647202 0.000000 0.000000
														CHANNELS 3 Xrotation Yrotation Zrotation
														End Site
														{
															OFFSET 0.000000 0.000000 0.000000
														}
													}
												}
											}
										}
									}
								}
							}
						}
					}
				}
			}
		}
	}
	JOINT LeftUpLeg
	{
		OFFSET 15.427100 -6.655098 0.678600
		CHANNELS 3 Xrotation Yrotation Zrotation
		JOINT LeftLeg
		{
			OFFSET 4.081073 -39.591068 13.024000
			CHANNELS 3 Xrotation Yrotation Zrotation
			JOINT LeftFoot
			{
				OFFSET -4.081074 -37.707932 -15.979700
				CHANNELS 3 Xrotation Yrotation Zrotation
				JOINT LeftToeBase
				{
					OFFSET 5.346399 -15.068900 20.645000
					CHANNELS 3 Xrotation Yrotation Zrotation
					JOINT LeftToe_End
					{
						OFFSET 2.754700 0.931300 11.300900
						CHANNELS 3 Xrotation Yrotation Zrotation
						End Site
						{
							OFFSET 0.000000 0.000000 0.000000
						}
					}
				}
			}
		}
	}
	JOINT RightUpLeg
	{
		OFFSET -15.569500 -6.655098 0.678600
		CHANNELS 3 Xrotation Yrotation Zrotation
		JOINT RightLeg
		{
			OFFSET -4.081825 -39.591045 13.023800
			CHANNELS 3 Xrotation Yrotation Zrotation
			JOINT RightFoot
			{
				OFFSET 4.081824 -37.707954 -15.979600
				CHANNELS 3 Xrotation Yrotation Zrotation
				JOINT RightToeBase
				{
					OFFSET -5.346400 -15.068900 20.645000
					CHANNELS 3 Xrotation Yrotation Zrotation
					JOINT RightToe_End
					{
						OFFSET -2.754700 0.931300 11.300900
						CHANNELS 3 Xrotation Yrotation Zrotation
						End Site
						{
							OFFSET 0.000000 0.000000 0.000000
						}
					}
				}
			}
		}
	}
}
MOTION
Frames: 5
Frame Time: 0.016667
10.503874 36.974625 -5.354633 1.558386 -29.261456 9.925791 2.920662 3.758322 -6.417518 2.227982 -1.286562 -3.027762 0.000000 0.000000 0.000000 2.233816 -1.285666 -3.025124 -3.962408 3.288531 2.946569 -0.115028 19.920373 2.691781 -0.000000 0.000000 -0.000000 0.452718 1.693816 1.739610 0.000000 0.000000 0.000000 -1.798693 -11.700862 -58.798660 0.000106 -83.306738 0.000118 -56.402917 17.147786 27.573305 -1.540054 3.690186 6.142343 3.939060 7.948713 0.746816 -0.579463 1.574988 2.538711 0.000000 0.000004 0.000000 1.016544 3.605832 -31.478699 1.016532 3.605841 -31.478709 0.193845 1.625531 -13.600722 0.000001 0.000000 -0.000000 1.299281 4.030462 -35.722893 1.301555 4.033587 -35.754995 0.332599 2.118106 -17.846588 -0.000002 -0.000000 0.000001 1.751610 4.592888 -41.733699 1.751615 4.592887 -41.733706 0.588560 2.790119 -23.818369 -0.000003 0.000001 0.000001 4.911441 7.752498 -44.887887 2.046409 0.814404 -45.446959 0.761374 3.152216 -27.151604 0.000000 0.000000 -0.000001 5.136813 17.382613 7.477154 0.000000 0.000000 0.000000 14.034100 22.826740 31.042267 0.000013 121.743942 -0.000020 2.429553 -25.805961 9.048807 -1.849241 -3.581793 -6.586138 4.637213 -8.634118 -0.225408 -1.273756 0.137314 -2.094868 0.000003 0.000000 0.000004 0.013960 -0.441470 3.625096 0.176783 -1.560952 12.920990 0.044318 -0.785457 6.459297 0.000002 0.000001 -0.000000 0.522938 -2.650094 22.321564 0.387264 -2.292318 19.175932 0.044331 -0.785466 6.459298 -0.000000 -0.000000 0.000001 0.723849 -3.093977 26.329766 0.387263 -2.292338 19.175942 0.044346 -0.785468 6.459281 -0.000000 -0.000000 0.000000 1.074283 -3.717936 32.222889 0.387261 -2.292326 19.175946 0.044323 -0.785454 6.459298 -0.000000 -0.000002 0.000000 -83.392102 -15.293668 52.092644 65.424982 13.001634 -5.164641 41.093980 -4.876036 -8.106444 -0.000647 0.000011 0.000001 0.000000 0.000003 0.000000 1.990806 -0.505789 -24.172786 97.970854 16.333233 1.743288 13.510334 2.003888 19.871785 53.497416 -3.178691 -7.121192 -0.000000 -0.000001 -0.000000 
10.495719 36.987053 -5.346926 1.592388 -29.229153 9.939512 2.917650 3.751246 -6.429899 2.224216 -1.288403 -3.033396 0.000000 0.000000 0.000000 2.230125 -1.286490 -3.030590 -3.922926 3.288503 2.958156 -0.049253 19.944320 2.683306 0.000000 0.000000 -0.000000 0.482384 1.632740 1.765588 0.000000 0.000000 0.000000 -1.851253 -11.677331 -58.833180 0.000499 -83.371167 0.000463 -56.190727 17.156021 27.669301 -1.540053 3.690183 6.142341 3.939060 7.948711 0.746818 -0.579463 1.574990 2.538711 -0.000000 -0.000002 -0.000000 1.016545 3.605831 -31.478699 1.016530 3.605837 -31.478706 0.193846 1.625530 -13.600722 0.000001 0.000000 -0.000000 1.299282 4.030458 -35.722893 1.301556 4.033587 -35.754995 0.332604 2.118105 -17.846588 0.000000 0.000001 -0.000001 1.751611 4.592889 -41.733702 1.751619 4.592886 -41.733699 0.588565 2.790119 -23.818365 -0.000001 -0.000002 0.000001 4.911443 7.752490 -44.887884 2.046403 0.814409 -45.446965 0.761377 3.152216 -27.151595 -0.000000 -0.000001 -0.000003 5.151216 17.427060 7.474816 0.000000 0.000000 0.000000 14.053425 22.660447 31.058120 0.000018 121.812326 -0.000014 2.471104 -25.904536 9.104233 -1.849244 -3.581790 -6.586141 4.637214 -8.634118 -0.225404 -1.273759 0.137316 -2.094863 0.000002 -0.000001 0.000002 0.013968 -0.441480 3.625073 0.176791 -1.560933 12.920985 0.044312 -0.785471 6.459289 0.000001 0.000001 0.000000 0.522940 -2.650091 22.321540 0.387272 -2.292323 19.175935 0.044334 -0.785462 6.459292 0.000000 0.000003 0.000000 0.723846 -3.093975 26.329734 0.387272 -2.292323 19.175934 0.044321 -0.785452 6.459284 -0.000001 0.000003 0.000000 1.074279 -3.717928 32.222852 0.387266 -2.292303 19.175942 0.044328 -0.785469 6.459299 -0.000000 -0.000003 0.000000 -83.383059 -15.331007 52.075527 65.427311 13.017465 -5.217981 41.096767 -4.863644 -8.072775 -0.000644 -0.000005 0.000001 -0.000000 0.000001 0.000000 1.981416 -0.444435 -24.205919 98.030160 16.297794 1.819624 13.374644 1.967261 19.813851 53.473746 -3.220194 -7.186116 -0.000001 0.000001 0.000000 
10.487870 36.999817 -5.342589 1.621416 -29.199486 9.951545 2.919162 3.743935 -6.442038 2.223864 -1.290196 -3.038300 0.000000 0.000000 0.000000 2.230377 -1.288411 -3.035255 -3.886563 3.294394 2.964090 -0.011394 19.978527 2.670442 -0.000000 0.000000 0.000000 0.506467 1.585649 1.768911 0.000000 0.000000 0.000000 -1.905211 -11.648049 -58.840604 0.000438 -83.445937 0.000442 -56.101613 17.119287 27.700867 -1.540054 3.690188 6.142343 3.939060 7.948713 0.746817 -0.579464 1.574991 2.538711 0.000000 -0.000001 -0.000000 1.016544 3.605832 -31.478703 1.016530 3.605837 -31.478699 0.193847 1.625531 -13.600721 -0.000000 0.000000 -0.000000 1.299282 4.030458 -35.722890 1.301556 4.033588 -35.754992 0.332607 2.118105 -17.846584 0.000004 -0.000001 0.000000 1.751609 4.592889 -41.733702 1.751614 4.592888 -41.733702 0.588560 2.790119 -23.818372 -0.000002 -0.000001 -0.000000 4.911441 7.752494 -44.887887 2.046412 0.814405 -45.446955 0.761370 3.152216 -27.151604 -0.000003 -0.000002 -0.000001 5.163595 17.463972 7.466050 0.000000 0.000000 0.000000 14.080612 22.520696 31.066829 0.000015 121.886638 -0.000016 2.595673 -26.024037 9.128059 -1.849247 -3.581795 -6.586138 4.637214 -8.634118 -0.225412 -1.273764 0.137319 -2.094868 -0.000002 -0.000001 -0.000001 0.013964 -0.441484 3.625080 0.176765 -1.560947 12.920986 0.044321 -0.785476 6.459296 0.000003 0.000002 -0.000001 0.522924 -2.650092 22.321541 0.387279 -2.292321 19.175930 0.044322 -0.785468 6.459295 0.000000 0.000003 -0.000000 0.723841 -3.093998 26.329732 0.387276 -2.292313 19.175920 0.044325 -0.785463 6.459294 0.000000 -0.000003 0.000000 1.074283 -3.717926 32.222852 0.387249 -2.292313 19.175941 0.044332 -0.785474 6.459301 0.000000 0.000003 -0.000000 -83.364672 -15.368452 52.058449 65.426109 13.037290 -5.269852 41.101521 -4.853791 -8.044435 -0.000633 -0.000013 0.000007 0.000000 0.000000 0.000000 1.977950 -0.394708 -24.233195 98.082234 16.255189 1.885872 13.253458 1.937675 19.772663 53.435490 -3.256303 -7.253418 0.000001 0.000000 -0.000000 
10.479387 37.012764 -5.342353 1.646597 -29.176840 9.963893 2.924682 3.734636 -6.454564 2.225576 -1.291793 -3.043521 0.000000 0.000000 0.000000 2.232482 -1.289741 -3.040206 -3.853553 3.304080 2.962690 -0.005856 20.019074 2.662789 -0.000000 0.000001 -0.000000 0.522518 1.557774 1.745666 0.000000 0.000000 0.000000 -1.958941 -11.606917 -58.821548 0.000690 -83.536806 0.000687 -56.009768 17.105229 27.723912 -1.540053 3.690188 6.142344 3.939059 7.948705 0.746816 -0.579464 1.574988 2.538711 -0.000000 -0.000003 -0.000000 1.016545 3.605829 -31.478699 1.016529 3.605837 -31.478709 0.193843 1.625531 -13.600723 0.000002 0.000000 0.000000 1.299283 4.030458 -35.722890 1.301558 4.033585 -35.754995 0.332605 2.118104 -17.846584 -0.000004 0.000000 -0.000001 1.751611 4.592884 -41.733699 1.751612 4.592889 -41.733699 0.588557 2.790119 -23.818367 0.000005 -0.000000 -0.000000 4.911443 7.752494 -44.887887 2.046416 0.814405 -45.446959 0.761369 3.152216 -27.151600 -0.000001 -0.000000 -0.000002 5.172908 17.491981 7.451951 0.000000 0.000000 0.000000 14.105770 22.416237 31.064114 -0.000015 121.951375 0.000005 2.794250 -26.106469 9.140215 -1.849234 -3.581793 -6.586140 4.637209 -8.634118 -0.225410 -1.273757 0.137315 -2.094864 -0.000002 -0.000000 -0.000001 0.013971 -0.441472 3.625082 0.176774 -1.560941 12.920994 0.044323 -0.785460 6.459292 0.000001 0.000001 -0.000001 0.522940 -2.650088 22.321553 0.387273 -2.292321 19.175932 0.044348 -0.785470 6.459280 -0.000001 0.000001 0.000001 0.723847 -3.093980 26.329751 0.387281 -2.292320 19.175930 0.044333 -0.785460 6.459292 -0.000000 -0.000002 0.000000 1.074277 -3.717924 32.222872 0.387279 -2.292327 19.175930 0.044324 -0.785470 6.459293 -0.000000 0.000000 0.000000 -83.331819 -15.404551 52.047011 65.421485 13.059772 -5.320877 41.105987 -4.848466 -8.032118 -0.000651 -0.000000 0.000003 0.000000 0.000002 0.000000 1.976775 -0.354989 -24.256379 98.127743 16.205729 1.939401 13.150214 1.915835 19.745102 53.385486 -3.284901 -7.321390 -0.000000 -0.000001 -0.000000 
10.469706 37.026085 -5.346279 1.669090 -29.163183 9.980392 2.932688 3.722930 -6.467895 2.230088 -1.293046 -3.049933 0.000000 0.000000 0.000000 2.235819 -1.290963 -3.046374 -3.822535 3.316909 2.955110 -0.029434 20.063551 2.665989 0.000000 -0.000000 0.000000 0.530836 1.548087 1.698934 0.000000 0.000000 0.000000 -2.011588 -11.548417 -58.783388 0.000127 -83.644102 0.000128 -55.910962 17.114420 27.736913 -1.540054 3.690188 6.142345 3.939059 7.948710 0.746816 -0.579464 1.574986 2.538711 -0.000000 -0.000001 0.000000 1.016545 3.605831 -31.478699 1.016530 3.605837 -31.478709 0.193844 1.625530 -13.600722 0.000002 0.000000 0.000000 1.299283 4.030460 -35.722887 1.301554 4.033589 -35.754995 0.332604 2.118105 -17.846582 -0.000001 0.000000 0.000000 1.751610 4.592888 -41.733699 1.751618 4.592889 -41.733699 0.588555 2.790119 -23.818365 0.000006 -0.000000 0.000001 4.911442 7.752495 -44.887884 2.046408 0.814408 -45.446959 0.761375 3.152217 -27.151605 0.000001 -0.000003 -0.000001 5.178687 17.514109 7.436937 0.000000 0.000000 0.000000 14.117866 22.346446 31.052144 -0.000011 121.993107 -0.000000 3.032381 -26.098921 9.170778 -1.849248 -3.581793 -6.586143 4.637212 -8.634119 -0.225407 -1.273756 0.137314 -2.094864 -0.000004 0.000001 -0.000001 0.013969 -0.441478 3.625092 0.176776 -1.560962 12.920984 0.044318 -0.785449 6.459289 -0.000000 0.000001 -0.000002 0.522934 -2.650092 22.321588 0.387277 -2.292317 19.175942 0.044310 -0.785463 6.459292 -0.000001 0.000005 0.000001 0.723856 -3.094001 26.329782 0.387254 -2.292306 19.175937 0.044326 -0.785475 6.459300 -0.000000 -0.000000 0.000000 1.074264 -3.717958 32.222906 0.387295 -2.292327 19.175932 0.044316 -0.785452 6.459301 0.000000 0.000002 0.000000 -83.282703 -15.435556 52.042838 65.411342 13.085300 -5.370091 41.110632 -4.849170 -8.035947 -0.000654 -0.000010 0.000003 0.000000 -0.000002 0.000000 1.973669 -0.324334 -24.274863 98.166771 16.153148 1.978091 13.066936 1.901169 19.728767 53.335619 -3.304547 -7.382392 -0.000001 0.000000 0.000000 
